# xmcd
#
# Track frame offsets: 
#        150
#        13468
#        25752
#        38986
#        59573
#        78255
#        92682
#        105052
#        119506
#        135268
#
# Disc length: 2145 seconds
#
# Revision: 6
# Processed by: cddbd v1.5.2PL0 Copyright (c) Steve Scherf et al.
# Submitted via: ExactAudioCopy v1.3
#
DISCID=76085f0a
DTITLE=Hank Williams, Jr. - Five-O volume 12
DYEAR=1985
DGENRE=Country
TTITLE0=I'm for Love
TTITLE1=I Really Like Girls
TTITLE2=The Nashville Scene
TTITLE3=Ain't Misbehavin'
TTITLE4=Something to Believe In
TTITLE5=Lawyers, Guns and Money
TTITLE6=This Ain't Dallas
TTITLE7=I've Been Around
TTITLE8=New Orleans
TTITLE9=Outlaw's Reward
EXTD=
EXTT0=
EXTT1=
EXTT2=
EXTT3=
EXTT4=
EXTT5=
EXTT6=
EXTT7=
EXTT8=
EXTT9=
PLAYORDER=
